<svg width="22" height="22" viewBox="0 0 22 22" fill="none" xmlns="http://www.w3.org/2000/svg">
<path d="M9.50016 20.7331L0.700163 11.9331C0.56683 11.7998 0.472163 11.6553 0.416162 11.4998C0.361051 11.3442 0.333496 11.1776 0.333496 10.9998C0.333496 10.822 0.361051 10.6553 0.416162 10.4998C0.472163 10.3442 0.56683 10.1998 0.700163 10.0665L9.50016 1.26645C9.74461 1.02201 10.0499 0.894007 10.4162 0.882451C10.7833 0.871785 11.1002 0.999784 11.3668 1.26645C11.6335 1.5109 11.7726 1.81623 11.7842 2.18245C11.7948 2.54956 11.6668 2.86645 11.4002 3.13312L4.86683 9.66645H19.7668C20.1446 9.66645 20.4615 9.79401 20.7175 10.0491C20.9726 10.3051 21.1002 10.622 21.1002 10.9998C21.1002 11.3776 20.9726 11.694 20.7175 11.9491C20.4615 12.2051 20.1446 12.3331 19.7668 12.3331H4.86683L11.4002 18.8665C11.6446 19.1109 11.7726 19.422 11.7842 19.7998C11.7948 20.1776 11.6668 20.4887 11.4002 20.7331C11.1557 20.9998 10.8446 21.1331 10.4668 21.1331C10.0891 21.1331 9.76683 20.9998 9.50016 20.7331Z" fill="#555555"/>
</svg>
