<svg width="64" height="43" viewBox="0 0 64 43" fill="none" xmlns="http://www.w3.org/2000/svg">
<path d="M48.6816 12.2444C47.7984 12.2444 46.9344 12.3244 46.0928 12.462C43.9936 5.59801 37.4912 0.599609 29.7888 0.599609C20.384 0.599609 12.7648 8.04921 12.7648 17.2364C12.7648 18.0556 12.8288 18.862 12.9472 19.6556C12.4918 19.5992 12.0333 19.5704 11.5744 19.5692C5.1808 19.5692 0 24.6316 0 30.8812C0 37.1308 5.1808 42.1996 11.5744 42.1996H25.6V29.3996H17.6L32 13.3996L46.4 29.3996H38.4V42.1996H48.6816C57.1392 42.1996 64 35.4924 64 27.2236C64 18.9484 57.1392 12.2444 48.6816 12.2444Z" fill="#A3B2CE"/>
</svg>
