<svg width="26" height="22" viewBox="0 0 26 22" fill="none" xmlns="http://www.w3.org/2000/svg">
<path d="M8 7.5C8 7.89782 8.15804 8.27936 8.43934 8.56066C8.72065 8.84196 9.10217 9 9.5 9C9.8974 8.99696 10.2782 8.84017 10.5625 8.5625C10.7022 8.42326 10.8129 8.25761 10.888 8.0752C10.9631 7.89279 11.0012 7.69726 11 7.5C11 7.10218 10.842 6.72064 10.5607 6.43934C10.2794 6.15804 9.89783 6 9.5 6C9.10217 6 8.72065 6.15804 8.43934 6.43934C8.15804 6.72064 8 7.10218 8 7.5ZM0 2V20C0 20.5304 0.210714 21.0391 0.585787 21.4142C0.960859 21.7893 1.46957 22 2 22H24C24.5304 22 25.0391 21.7893 25.4142 21.4142C25.7893 21.0391 26 20.5304 26 20V2C26 1.46957 25.7893 0.960859 25.4142 0.585786C25.0391 0.210714 24.5304 0 24 0H2C1.46957 0 0.960859 0.210714 0.585787 0.585786C0.210714 0.960859 0 1.46957 0 2ZM2 15.5875V2H24V13.5875L19.4125 9C19.036 8.629 18.5286 8.42103 18 8.42103C17.4714 8.42103 16.964 8.629 16.5875 9L11 14.5875L8.4125 12C8.03597 11.629 7.5286 11.421 7 11.421C6.4714 11.421 5.96403 11.629 5.5875 12L2 15.5875Z" fill="#555555"/>
</svg>
