<svg width="16" height="18" viewBox="0 0 24 28" fill="none" xmlns="http://www.w3.org/2000/svg">
<path d="M2.66667 27.3332C1.93333 27.3332 1.30533 27.0723 0.782667 26.5505C0.260889 26.0278 0 25.3998 0 24.6665V5.99984C0 5.2665 0.260889 4.63895 0.782667 4.11717C1.30533 3.5945 1.93333 3.33317 2.66667 3.33317H4V1.99984C4 1.26346 4.59695 0.666504 5.33333 0.666504C6.06971 0.666504 6.66667 1.26346 6.66667 1.99984V3.33317H17.3333V1.99984C17.3333 1.26346 17.9303 0.666504 18.6667 0.666504C19.403 0.666504 20 1.26346 20 1.99984V3.33317H21.3333C22.0667 3.33317 22.6947 3.5945 23.2173 4.11717C23.7391 4.63895 24 5.2665 24 5.99984V24.6665C24 25.3998 23.7391 26.0278 23.2173 26.5505C22.6947 27.0723 22.0667 27.3332 21.3333 27.3332H2.66667ZM2.66667 24.6665H21.3333V11.3332H2.66667V24.6665ZM2.66667 8.6665H21.3333V5.99984H2.66667V8.6665ZM12 16.6665C11.6222 16.6665 11.3058 16.5385 11.0507 16.2825C10.7947 16.0274 10.6667 15.7109 10.6667 15.3332C10.6667 14.9554 10.7947 14.6385 11.0507 14.3825C11.3058 14.1274 11.6222 13.9998 12 13.9998C12.3778 13.9998 12.6947 14.1274 12.9507 14.3825C13.2058 14.6385 13.3333 14.9554 13.3333 15.3332C13.3333 15.7109 13.2058 16.0274 12.9507 16.2825C12.6947 16.5385 12.3778 16.6665 12 16.6665ZM6.66667 16.6665C6.28889 16.6665 5.972 16.5385 5.716 16.2825C5.46089 16.0274 5.33333 15.7109 5.33333 15.3332C5.33333 14.9554 5.46089 14.6385 5.716 14.3825C5.972 14.1274 6.28889 13.9998 6.66667 13.9998C7.04444 13.9998 7.36133 14.1274 7.61733 14.3825C7.87245 14.6385 8 14.9554 8 15.3332C8 15.7109 7.87245 16.0274 7.61733 16.2825C7.36133 16.5385 7.04444 16.6665 6.66667 16.6665ZM17.3333 16.6665C16.9556 16.6665 16.6391 16.5385 16.384 16.2825C16.128 16.0274 16 15.7109 16 15.3332C16 14.9554 16.128 14.6385 16.384 14.3825C16.6391 14.1274 16.9556 13.9998 17.3333 13.9998C17.7111 13.9998 18.0276 14.1274 18.2827 14.3825C18.5387 14.6385 18.6667 14.9554 18.6667 15.3332C18.6667 15.7109 18.5387 16.0274 18.2827 16.2825C18.0276 16.5385 17.7111 16.6665 17.3333 16.6665ZM12 21.9998C11.6222 21.9998 11.3058 21.8718 11.0507 21.6158C10.7947 21.3607 10.6667 21.0443 10.6667 20.6665C10.6667 20.2887 10.7947 19.9723 11.0507 19.7172C11.3058 19.4612 11.6222 19.3332 12 19.3332C12.3778 19.3332 12.6947 19.4612 12.9507 19.7172C13.2058 19.9723 13.3333 20.2887 13.3333 20.6665C13.3333 21.0443 13.2058 21.3607 12.9507 21.6158C12.6947 21.8718 12.3778 21.9998 12 21.9998ZM6.66667 21.9998C6.28889 21.9998 5.972 21.8718 5.716 21.6158C5.46089 21.3607 5.33333 21.0443 5.33333 20.6665C5.33333 20.2887 5.46089 19.9723 5.716 19.7172C5.972 19.4612 6.28889 19.3332 6.66667 19.3332C7.04444 19.3332 7.36133 19.4612 7.61733 19.7172C7.87245 19.9723 8 20.2887 8 20.6665C8 21.0443 7.87245 21.3607 7.61733 21.6158C7.36133 21.8718 7.04444 21.9998 6.66667 21.9998ZM17.3333 21.9998C16.9556 21.9998 16.6391 21.8718 16.384 21.6158C16.128 21.3607 16 21.0443 16 20.6665C16 20.2887 16.128 19.9723 16.384 19.7172C16.6391 19.4612 16.9556 19.3332 17.3333 19.3332C17.7111 19.3332 18.0276 19.4612 18.2827 19.7172C18.5387 19.9723 18.6667 20.2887 18.6667 20.6665C18.6667 21.0443 18.5387 21.3607 18.2827 21.6158C18.0276 21.8718 17.7111 21.9998 17.3333 21.9998Z" fill="#2F343E"/>
</svg>
