<svg width="200" height="200" viewBox="0 0 200 200" fill="none" xmlns="http://www.w3.org/2000/svg">
<path d="M184.175 35.8898C184.739 33.7463 182.864 31.7525 180.69 32.184L169.021 34.5L152.646 37.75L162.083 60.7984L173.621 58.4556C176.608 57.8491 178.991 55.5983 179.766 52.6508L184.175 35.8898ZM128.762 44.1256C128.405 43.2315 127.461 42.7189 126.517 42.9059L114.123 45.3595C112.885 45.6046 112.18 46.9213 112.664 48.0873L120.622 67.2825C120.987 68.1638 121.924 68.6643 122.859 68.4781L135.177 66.0272C136.419 65.78 137.122 64.4549 136.629 63.2879L132.708 53.9998L128.762 44.1256ZM87.9418 52.1252C87.5773 51.2318 86.627 50.726 85.6824 50.9226L73.2613 53.5077C72.0333 53.7633 71.3409 55.0731 71.8213 56.2317L79.7882 75.4492C80.1536 76.3304 81.0905 76.831 82.0261 76.6448L94.373 74.188C95.6056 73.9428 96.3092 72.6347 95.8345 71.471L87.9418 52.1252ZM52.2422 63.6881C51.5133 61.9924 49.7186 61.0156 47.8988 61.3241L33.4328 63.7764L29.3495 64.5681C27.2028 64.9914 25.1608 65.8343 23.3405 67.0485C21.5203 68.2626 19.9576 69.8242 18.7421 71.6435C17.5266 73.4629 16.6822 75.5043 16.2573 77.6507C15.8325 79.7971 15.4297 78.5673 15.0004 89.965L54.9212 82.1976C57.4253 81.7104 58.8396 79.0352 57.8321 76.6916L52.2422 63.6881ZM172.097 96.7079V179.154H98.6559H25.2151V96.7079H98.3333H135.215H172.097ZM181.667 93.9651C181.667 91.7559 179.876 89.965 177.667 89.965H15.0004L15 173.298C15 177.719 14.9994 184.208 18.125 187.333C21.2506 190.459 27.2464 189.965 31.6667 189.965H165C174.25 189.965 181.667 193.236 181.667 173.298V93.9651Z" fill="#637381"/>
<path d="M85.5547 149.68H80.9375V157.156H75.5703V149.68H59.9141V145.438L75.5703 122.797H80.9375V145.11H85.5547V149.68ZM75.5703 145.11V136.508C75.5703 133.446 75.6484 130.938 75.8047 128.985H75.6172C75.1797 130.016 74.4922 131.266 73.5547 132.735L65.0469 145.11H75.5703ZM111.758 140.024C111.758 145.977 110.797 150.399 108.875 153.289C106.969 156.18 104.047 157.625 100.109 157.625C96.2969 157.625 93.4062 156.133 91.4375 153.149C89.4688 150.164 88.4844 145.789 88.4844 140.024C88.4844 133.977 89.4375 129.524 91.3438 126.664C93.2656 123.789 96.1875 122.352 100.109 122.352C103.938 122.352 106.836 123.852 108.805 126.852C110.773 129.852 111.758 134.242 111.758 140.024ZM94.0625 140.024C94.0625 144.696 94.5391 148.031 95.4922 150.031C96.4609 152.031 98 153.031 100.109 153.031C102.219 153.031 103.758 152.016 104.727 149.985C105.711 147.953 106.203 144.633 106.203 140.024C106.203 135.43 105.711 132.11 104.727 130.063C103.758 128 102.219 126.969 100.109 126.969C98 126.969 96.4609 127.977 95.4922 129.992C94.5391 132.008 94.0625 135.352 94.0625 140.024ZM140.398 149.68H135.781V157.156H130.414V149.68H114.758V145.438L130.414 122.797H135.781V145.11H140.398V149.68ZM130.414 145.11V136.508C130.414 133.446 130.492 130.938 130.648 128.985H130.461C130.023 130.016 129.336 131.266 128.398 132.735L119.891 145.11H130.414Z" fill="#637381"/>
</svg>

