<svg width="20" height="28" viewBox="0 0 20 28" fill="none" xmlns="http://www.w3.org/2000/svg">
<path d="M19.7 7.30035L12.7 0.300352C12.612 0.202644 12.5038 0.125214 12.383 0.0734163C12.2621 0.0216186 12.1314 -0.00331056 12 0.000352403H2C1.47005 0.00193513 0.962265 0.213157 0.587535 0.587887C0.212805 0.962618 0.00158273 1.47041 0 2.00035V26.0004C0.00158273 26.5303 0.212805 27.0381 0.587535 27.4128C0.962265 27.7875 1.47005 27.9988 2 28.0004H18C18.5299 27.9988 19.0377 27.7875 19.4125 27.4128C19.7872 27.0381 19.9984 26.5303 20 26.0004V8.00035C20.0037 7.86891 19.9787 7.73824 19.9269 7.61738C19.8751 7.49652 19.7977 7.38835 19.7 7.30035ZM12 2.40035L17.6 8.00035H12V2.40035ZM18 26.0004H2V2.00035H10V8.00035C10.0016 8.5303 10.2128 9.03809 10.5875 9.41282C10.9623 9.78755 11.4701 9.99877 12 10.0004H18V26.0004Z" fill="#555555"/>
</svg>
