<svg width="32" height="32" viewBox="0 0 32 32" fill="none" xmlns="http://www.w3.org/2000/svg">
<path fill-rule="evenodd" clip-rule="evenodd" d="M14.8533 4.76184C15.1709 4.63493 15.5251 4.63493 15.8427 4.76184L29.8574 10.3618C30.3639 10.5642 30.696 11.0546 30.696 11.6C30.696 12.1454 30.3639 12.6358 29.8574 12.8381L15.8427 18.4381C15.5251 18.5651 15.1709 18.5651 14.8533 18.4381L0.838593 12.8381C0.332145 12.6358 0 12.1454 0 11.6C0 11.0546 0.332145 10.5642 0.838593 10.3618L14.8533 4.76184ZM4.92669 11.6L15.348 15.7642L25.7693 11.6L15.348 7.43583L4.92669 11.6Z" fill="black"/>
<path fill-rule="evenodd" clip-rule="evenodd" d="M29.3626 10.34C30.099 10.34 30.6959 10.9369 30.6959 11.6733V17.822C30.6959 18.5584 30.099 19.1553 29.3626 19.1553C28.6262 19.1553 28.0293 18.5584 28.0293 17.822V11.6733C28.0293 10.9369 28.6262 10.34 29.3626 10.34ZM7.70394 13.2167C8.44032 13.2167 9.03727 13.8136 9.03727 14.55V22.2401C9.05963 22.2583 9.08287 22.277 9.10698 22.2963C9.43578 22.5592 9.92109 22.9143 10.5323 23.2698C11.7649 23.9867 13.4426 24.6667 15.3479 24.6667C17.2537 24.6667 18.9315 23.9866 20.1642 23.2697C20.7754 22.9143 21.2608 22.5592 21.5896 22.2963C21.6137 22.277 21.6369 22.2583 21.6593 22.2401V14.55C21.6593 13.8136 22.2562 13.2167 22.9926 13.2167C23.729 13.2167 24.3259 13.8136 24.3259 14.55V22.8447C24.3259 23.202 24.1825 23.5444 23.9278 23.795L22.9926 22.8447C23.9278 23.795 23.9274 23.7954 23.9271 23.7957L23.9246 23.7982L23.9202 23.8024L23.9079 23.8144C23.8981 23.8238 23.8851 23.8362 23.869 23.8513C23.8369 23.8816 23.7922 23.9228 23.7356 23.9735C23.6224 24.0749 23.4609 24.2143 23.2549 24.3791C22.8437 24.7078 22.25 25.1415 21.5048 25.5749C20.0247 26.4357 17.8802 27.3333 15.3479 27.3333C12.816 27.3333 10.6716 26.4357 9.19161 25.5749C8.44645 25.1415 7.85277 24.7078 7.44165 24.3791C7.23562 24.2143 7.07409 24.0749 6.96092 23.9735C6.9043 23.9228 6.85967 23.8816 6.82751 23.8513C6.81143 23.8362 6.79845 23.8238 6.78864 23.8144L6.77631 23.8024L6.77194 23.7982L6.76945 23.7957C6.7691 23.7954 6.76877 23.795 7.70394 22.8447L6.76877 23.795C6.51405 23.5444 6.37061 23.202 6.37061 22.8447V14.55C6.37061 13.8136 6.96756 13.2167 7.70394 13.2167Z" fill="black"/>
</svg>
