<svg width="190" height="162" viewBox="0 0 190 162" fill="none" xmlns="http://www.w3.org/2000/svg">
<path opacity="0.1" d="M188.382 111.898C183.214 85.8332 152.931 65.0009 147.024 37.8389C136.289 3.28156 100.906 -2.18203 77.9134 12.8262C41.4814 36.607 80.3468 42.5084 8.9156 98.7722C-8.72237 112.665 -3.10211 173.99 52.3859 159.916C82.2471 152.342 91.3248 151.28 104.757 150.032C138.612 146.889 197.059 155.653 188.382 111.898Z" fill="#00BBCC"/>
<path d="M147.938 118.431L95.6113 146.068L43.3638 118.431V76.6982H147.938V118.431Z" fill="white"/>
<path d="M95.6115 146.492C95.5423 146.492 95.4742 146.475 95.4131 146.442L43.1672 118.806C43.0993 118.77 43.0424 118.716 43.0026 118.651C42.9629 118.585 42.9417 118.51 42.9414 118.433V76.6983C42.9414 76.5859 42.9861 76.4781 43.0656 76.3986C43.145 76.3191 43.2529 76.2744 43.3653 76.2744H147.938C148.05 76.2744 148.158 76.3191 148.238 76.3986C148.317 76.4781 148.362 76.5859 148.362 76.6983V118.431C148.362 118.508 148.34 118.583 148.301 118.649C148.261 118.715 148.204 118.769 148.136 118.804L95.8095 146.441C95.7487 146.474 95.6807 146.491 95.6115 146.492ZM43.7878 118.177L95.6115 145.589L147.514 118.176V77.1222H43.7878V118.177Z" fill="#555555"/>
<path d="M147.938 67.7426L95.6113 40.1062L119.125 28.7725L171.451 56.4091L147.938 67.7426Z" fill="white"/>
<path d="M147.938 68.1671C147.869 68.1671 147.801 68.1503 147.74 68.1182L95.4137 40.4815C95.3444 40.4448 95.2866 40.3896 95.2468 40.3221C95.207 40.2545 95.1866 40.1772 95.1881 40.0988C95.1895 40.0204 95.2127 39.9439 95.2549 39.8779C95.2972 39.8118 95.357 39.7588 95.4276 39.7247L118.941 28.3909C119.001 28.3619 119.067 28.3475 119.133 28.3487C119.2 28.3499 119.265 28.3668 119.323 28.398L171.65 56.0347C171.719 56.0714 171.777 56.1265 171.817 56.194C171.857 56.2616 171.877 56.3389 171.876 56.4173C171.874 56.4957 171.851 56.5721 171.809 56.6382C171.766 56.7042 171.707 56.7572 171.636 56.7912L148.122 68.125C148.065 68.1527 148.002 68.1671 147.938 68.1671ZM96.5521 40.1234L147.947 67.2678L170.512 56.3918L119.117 29.2482L96.5521 40.1234Z" fill="#555555"/>
<path d="M43.3641 67.7426L95.6907 40.1062L72.1772 28.7725L19.8506 56.4091L43.3641 67.7426Z" fill="white"/>
<path d="M43.3643 68.1671C43.3005 68.1671 43.2376 68.1527 43.1801 68.125L19.6679 56.7912C19.5973 56.7572 19.5375 56.7042 19.4952 56.6382C19.4529 56.5721 19.4297 56.4957 19.4283 56.4173C19.4269 56.3389 19.4472 56.2616 19.487 56.194C19.5269 56.1265 19.5847 56.0714 19.654 56.0347L71.9806 28.398C72.0393 28.3668 72.1044 28.3499 72.1708 28.3487C72.2373 28.3475 72.303 28.3619 72.3628 28.3909L95.8763 39.7247C95.947 39.7588 96.0067 39.8118 96.049 39.8779C96.0913 39.9439 96.1145 40.0204 96.1159 40.0988C96.1173 40.1772 96.097 40.2545 96.0572 40.3221C96.0173 40.3896 95.9596 40.4448 95.8903 40.4815L43.5637 68.1182C43.5022 68.1506 43.4337 68.1673 43.3643 68.1671ZM20.791 56.3925L43.3555 67.2684L94.7505 40.1241L72.1861 29.2482L20.791 56.3925Z" fill="#555555"/>
<path d="M43.364 67.7432L95.6906 95.3798L68.7861 110.104L16.4595 82.4679L43.364 67.7432Z" fill="white"/>
<path d="M68.786 110.528C68.717 110.528 68.649 110.511 68.588 110.479L16.2614 82.8422C16.1939 82.8064 16.1372 82.753 16.0976 82.6876C16.0579 82.6222 16.0367 82.5473 16.0361 82.4708C16.0356 82.3944 16.0557 82.3192 16.0944 82.2532C16.1331 82.1873 16.189 82.133 16.256 82.0962L43.1606 67.3714C43.222 67.3377 43.2909 67.3198 43.361 67.3193C43.431 67.3189 43.5002 67.3358 43.562 67.3687L95.8886 95.0054C95.9562 95.0412 96.0128 95.0947 96.0525 95.1601C96.0921 95.2254 96.1133 95.3003 96.1139 95.3768C96.1145 95.4533 96.0943 95.5285 96.0556 95.5944C96.0169 95.6604 95.9611 95.7146 95.8941 95.7514L68.9895 110.476C68.9271 110.51 68.8571 110.528 68.786 110.528ZM17.3547 82.4611L68.7823 109.623L94.7957 95.3862L43.3677 68.2243L17.3547 82.4611Z" fill="#555555"/>
<path d="M147.938 67.7432L95.6118 95.3798L122.516 110.104L174.843 82.4679L147.938 67.7432Z" fill="white"/>
<path d="M122.517 110.528C122.446 110.528 122.376 110.51 122.313 110.476L95.4088 95.7514C95.3418 95.7146 95.286 95.6604 95.2473 95.5944C95.2086 95.5285 95.1884 95.4533 95.189 95.3768C95.1895 95.3003 95.2108 95.2254 95.2504 95.1601C95.2901 95.0947 95.3467 95.0412 95.4142 95.0054L147.741 67.3687C147.803 67.3358 147.872 67.3189 147.942 67.3193C148.012 67.3198 148.081 67.3377 148.142 67.3714L175.047 82.0962C175.114 82.133 175.17 82.1873 175.208 82.2532C175.247 82.3192 175.267 82.3944 175.267 82.4708C175.266 82.5473 175.245 82.6222 175.205 82.6876C175.166 82.753 175.109 82.8064 175.041 82.8422L122.715 110.479C122.654 110.511 122.586 110.528 122.517 110.528ZM96.5078 95.3862L122.521 109.623L173.949 82.4611L147.935 68.2243L96.5078 95.3862Z" fill="#555555"/>
<path d="M95.6903 40.1064L43.3638 67.7428L95.6113 95.3795L147.938 67.7428L95.6903 40.1064Z" fill="#555555"/>
<path d="M96.0357 95.3799H95.188V146.068H96.0357V95.3799Z" fill="#555555"/>
<path d="M66.2938 65.2343C66.2236 65.2343 66.1552 65.2124 66.0981 65.1715C66.0247 65.1196 65.975 65.0406 65.9598 64.9519C65.9447 64.8633 65.9654 64.7722 66.0174 64.6988C66.0801 64.6103 72.2087 55.7503 65.367 47.6729C64.1561 46.2359 62.6455 45.081 60.9412 44.2893C59.2369 43.4976 57.3801 43.0881 55.5009 43.0897H55.4086C56.0583 45.3467 55.9424 47.3535 55.0224 48.893C54.6304 49.5887 54.0519 50.1611 53.3522 50.5457C52.6524 50.9304 51.8591 51.112 51.0617 51.0701C50.4016 51.016 49.7716 50.7706 49.2489 50.3639C48.7262 49.9573 48.3334 49.407 48.1187 48.7805C47.3662 46.8177 48.1526 44.9147 50.2251 43.6882C51.5381 42.9641 52.9971 42.5445 54.4941 42.4603C54.0071 41.1691 53.3738 39.938 52.6066 38.7909C50.1363 35.0181 45.6341 32.4063 40.2539 31.6254C35.6944 30.9638 31.3247 31.743 29.1202 33.6101C29.0515 33.6682 28.9626 33.6967 28.873 33.6892C28.7833 33.6817 28.7004 33.6389 28.6423 33.5703C28.5842 33.5016 28.5557 33.4127 28.5632 33.323C28.5707 33.2334 28.6134 33.1504 28.6821 33.0923C31.028 31.1055 35.6082 30.2656 40.3512 30.956C45.9237 31.7651 50.5971 34.4857 53.1743 38.4209C54.0098 39.669 54.6895 41.0146 55.1981 42.4277C57.2253 42.379 59.2376 42.7858 61.0868 43.618C62.9359 44.4501 64.5748 45.6866 65.8828 47.2362C73.0693 55.7201 66.6346 65 66.5688 65.0929C66.5374 65.1366 66.4961 65.1722 66.4483 65.1968C66.4005 65.2213 66.3475 65.2342 66.2938 65.2343ZM54.7142 43.1144C53.2627 43.1763 51.8452 43.5725 50.572 44.2721C48.7829 45.3308 48.1203 46.8859 48.7535 48.538C48.925 49.0442 49.2404 49.4895 49.661 49.8192C50.0816 50.149 50.5892 50.3491 51.1217 50.3949C51.7922 50.4249 52.4579 50.2679 53.0442 49.9413C53.6305 49.6146 54.1145 49.1314 54.4419 48.5455C55.2862 47.1314 55.3635 45.2518 54.7131 43.1144H54.7142Z" fill="#555555"/>
<path d="M23.2677 39.0769C22.6914 39.25 22.0704 39.1913 21.5367 38.9134C21.0031 38.6354 20.599 38.1601 20.4106 37.5887C20.2222 37.0173 20.2642 36.3949 20.5278 35.854C20.7914 35.3131 21.2558 34.8965 21.822 34.6929C22.3882 34.4893 23.0115 34.5147 23.5592 34.7638C24.1069 35.0128 24.5358 35.4659 24.7544 36.0264C24.9731 36.587 24.9643 37.2108 24.7299 37.7649C24.4956 38.3191 24.0541 38.7599 23.4996 38.9935C23.4239 39.0255 23.3465 39.0533 23.2677 39.0769ZM22.1402 35.3088C22.0853 35.3253 22.0313 35.3448 21.9784 35.3671C21.5883 35.5316 21.2777 35.842 21.113 36.232C20.9483 36.6221 20.9423 37.0611 21.0964 37.4555C21.2506 37.8499 21.5526 38.1685 21.9381 38.3435C22.3237 38.5185 22.7624 38.5361 23.1607 38.3924C23.559 38.2488 23.8855 37.9553 24.0707 37.5745C24.2559 37.1937 24.285 36.7557 24.152 36.3537C24.0189 35.9517 23.7342 35.6175 23.3584 35.4224C22.9827 35.2272 22.5456 35.1864 22.1402 35.3088Z" fill="#555555"/>
<path d="M23.2635 33.7635C22.7184 33.9263 22.1323 33.8818 21.6181 33.6386C21.1038 33.3954 20.6975 32.9707 20.4774 32.4461C20.301 32.0255 20.2532 31.5621 20.3401 31.1144C20.4271 30.6667 20.6448 30.2548 20.9659 29.9308C21.2869 29.6069 21.6968 29.3854 22.1437 29.2944C22.5906 29.2034 23.0545 29.247 23.4766 29.4197C23.8988 29.5923 24.2602 29.8863 24.5153 30.2644C24.7704 30.6424 24.9076 31.0877 24.9096 31.5438C24.9116 31.9998 24.7783 32.4463 24.5266 32.8266C24.2749 33.2069 23.916 33.5041 23.4954 33.6804C23.4196 33.7121 23.3422 33.7399 23.2635 33.7635ZM22.1373 29.9951C22.0818 30.0118 22.0271 30.0313 21.9736 30.0537C21.5757 30.2208 21.2606 30.539 21.0973 30.9384C20.934 31.3378 20.9359 31.7857 21.1027 32.1836C21.2244 32.4737 21.4275 32.7223 21.6875 32.8994C21.9474 33.0765 22.2531 33.1744 22.5676 33.1814C22.8821 33.1884 23.1918 33.1041 23.4594 32.9388C23.727 32.7734 23.9409 32.5341 24.0754 32.2497C24.2098 31.9653 24.2589 31.6481 24.2168 31.3364C24.1747 31.0246 24.0432 30.7318 23.8382 30.4932C23.6332 30.2547 23.3634 30.0806 23.0616 29.9922C22.7597 29.9037 22.4387 29.9046 22.1373 29.9947V29.9951Z" fill="#555555"/>
<path d="M22.6056 36.1616C24.2709 36.1616 25.6209 35.26 25.6209 34.1477C25.6209 33.0355 24.2709 32.1338 22.6056 32.1338C20.9403 32.1338 19.5903 33.0355 19.5903 34.1477C19.5903 35.26 20.9403 36.1616 22.6056 36.1616Z" fill="white"/>
<path d="M23.9407 36.3098C23.5084 36.4376 23.0598 36.502 22.609 36.5011C20.7277 36.5011 19.252 35.4702 19.252 34.1508C19.252 32.8314 20.7233 31.7968 22.604 31.7947C23.4239 31.779 24.2306 32.0029 24.9251 32.439C25.237 32.6015 25.4985 32.8464 25.681 33.147C25.8636 33.4476 25.9602 33.7926 25.9606 34.1443C25.9609 34.496 25.8648 34.8411 25.6828 35.142C25.5008 35.443 25.2398 35.6883 24.9282 35.8514C24.6235 36.0522 24.2907 36.2067 23.9407 36.3098ZM21.4781 32.6343C20.5721 32.9056 19.9298 33.4912 19.9302 34.1491C19.9302 35.0569 21.1567 35.8229 22.609 35.8215C23.2951 35.836 23.9705 35.6503 24.5528 35.2871C24.7711 35.1865 24.9561 35.0254 25.0856 34.8229C25.2152 34.6204 25.284 34.385 25.2837 34.1445C25.2835 33.9041 25.2144 33.6688 25.0844 33.4665C24.9545 33.2642 24.7693 33.1035 24.5507 33.0033C23.9681 32.6409 23.2923 32.4563 22.6063 32.4722C22.2244 32.4712 21.8444 32.5259 21.4781 32.6343Z" fill="#555555"/>
<path d="M23.3452 36.1005L23.274 32.1839L22.3001 32.1445L22.2319 36.1463L23.3452 36.1005Z" fill="#555555"/>
<path d="M18.6052 34.9995C18.7772 34.9995 18.9165 34.8602 18.9165 34.6882C18.9165 34.5163 18.7772 34.377 18.6052 34.377C18.4333 34.377 18.2939 34.5163 18.2939 34.6882C18.2939 34.8602 18.4333 34.9995 18.6052 34.9995Z" fill="#555555"/>
<path d="M18.8484 33.3345C19.0203 33.3345 19.1597 33.1951 19.1597 33.0232C19.1597 32.8513 19.0203 32.7119 18.8484 32.7119C18.6765 32.7119 18.5371 32.8513 18.5371 33.0232C18.5371 33.1951 18.6765 33.3345 18.8484 33.3345Z" fill="#555555"/>
<path d="M119.575 45.6779C119.503 45.6779 119.432 45.6546 119.374 45.6114C119.316 45.5683 119.273 45.5075 119.251 45.4381C118.127 41.238 117.826 36.8596 118.368 32.5452C119.244 26.2379 122.723 17.9602 134.316 14.3355C135.947 13.8111 137.62 13.4275 139.317 13.189C139.863 9.77732 141.941 6.07638 146.588 3.52296C157.63 -2.54423 165.089 2.89935 165.162 2.95496C165.234 3.00892 165.282 3.08926 165.295 3.17829C165.307 3.26732 165.284 3.35776 165.23 3.4297C165.176 3.50165 165.096 3.54922 165.007 3.56194C164.918 3.57465 164.827 3.55149 164.756 3.49752C164.685 3.44462 157.557 -1.73039 146.915 4.11774C142.573 6.50399 140.585 9.9289 140.02 13.1083C145.133 12.6047 147.581 14.3104 148.68 15.5987C149.36 16.3733 149.797 17.331 149.937 18.3523C150.076 19.3736 149.912 20.4133 149.465 21.342C149.112 22.0926 148.539 22.7184 147.822 23.1367C147.106 23.555 146.279 23.7461 145.452 23.6848C142.596 23.5173 140.233 21.1151 139.432 17.5648C139.168 16.3629 139.098 15.1265 139.224 13.9025C137.628 14.1318 136.054 14.4937 134.518 14.9846C125.483 17.8096 120.276 23.7503 119.039 32.6405C118.509 36.857 118.801 41.1362 119.9 45.2415C119.915 45.2922 119.919 45.3458 119.91 45.3981C119.901 45.4503 119.88 45.4998 119.848 45.5424C119.817 45.5851 119.775 45.6197 119.728 45.6436C119.681 45.6675 119.629 45.6799 119.575 45.6799V45.6779ZM139.915 13.8177C139.774 15.0184 139.834 16.2343 140.094 17.4152C140.827 20.6631 142.945 22.8581 145.492 23.0077C146.186 23.0574 146.878 22.8962 147.479 22.5452C148.08 22.1942 148.561 21.6699 148.858 21.0409C149.246 20.231 149.387 19.325 149.263 18.4357C149.14 17.5464 148.757 16.7131 148.164 16.0395C146.578 14.1788 143.685 13.4274 139.915 13.8177Z" fill="#555555"/>
<path d="M173.062 6.38179C172.605 6.38083 172.158 6.25075 171.772 6.00654C171.386 5.76234 171.077 5.41397 170.881 5.00165C170.684 4.58933 170.608 4.12987 170.662 3.67628C170.715 3.22269 170.896 2.79348 171.183 2.43817C171.47 2.08287 171.851 1.81596 172.284 1.66824C172.716 1.52053 173.181 1.49804 173.625 1.60336C174.07 1.70868 174.475 1.93752 174.795 2.26348C175.115 2.58943 175.336 2.99921 175.433 3.44552C175.509 3.79931 175.505 4.16562 175.422 4.51763C175.338 4.86964 175.176 5.19843 174.949 5.47994C174.721 5.76144 174.434 5.98853 174.107 6.14458C173.781 6.30062 173.424 6.38167 173.062 6.38179ZM173.067 2.21628C172.706 2.21627 172.354 2.32813 172.06 2.53644C171.766 2.74475 171.543 3.03926 171.423 3.37936C171.303 3.71947 171.291 4.08844 171.39 4.43542C171.488 4.7824 171.692 5.0903 171.973 5.3167C172.253 5.54309 172.597 5.67683 172.957 5.69947C173.317 5.72212 173.675 5.63256 173.982 5.44314C174.289 5.25373 174.53 4.97377 174.671 4.64187C174.812 4.30997 174.847 3.94245 174.771 3.58998C174.688 3.2 174.473 2.85045 174.163 2.60022C173.853 2.35 173.466 2.2144 173.067 2.21628Z" fill="#555555"/>
<path d="M172.041 11.9159C171.419 11.9158 170.821 11.6775 170.37 11.25C169.919 10.8224 169.649 10.2382 169.616 9.61762C169.582 8.99701 169.788 8.38722 170.191 7.91378C170.594 7.44035 171.162 7.1393 171.78 7.07262C172.398 7.00594 173.018 7.17869 173.513 7.55532C174.007 7.93195 174.338 8.48379 174.438 9.09724C174.538 9.71068 174.399 10.339 174.049 10.853C173.7 11.3669 173.166 11.7273 172.559 11.8599C172.389 11.8971 172.215 11.9159 172.041 11.9159ZM172.049 7.75003C171.924 7.75008 171.799 7.76361 171.676 7.79038C171.243 7.88551 170.863 8.14305 170.614 8.50999C170.365 8.87694 170.266 9.32539 170.337 9.76307C170.409 10.2007 170.645 10.5944 170.998 10.8629C171.351 11.1315 171.794 11.2546 172.235 11.2069C172.675 11.1592 173.081 10.9444 173.369 10.6065C173.656 10.2687 173.803 9.83358 173.779 9.39073C173.755 8.94788 173.563 8.53097 173.241 8.22577C172.919 7.92058 172.493 7.75032 172.049 7.75003Z" fill="#555555"/>
<path d="M175.683 7.37216C175.896 6.21391 174.664 5.01555 172.93 4.69555C171.195 4.37555 169.616 5.0551 169.403 6.21335C169.189 7.3716 170.421 8.56996 172.156 8.88995C173.89 9.20995 175.469 8.53041 175.683 7.37216Z" fill="white"/>
<path d="M173.01 9.30881C172.703 9.30832 172.396 9.27994 172.094 9.22404C171.241 9.08255 170.448 8.69529 169.812 8.10975C169.534 7.87225 169.32 7.5684 169.19 7.2263C169.06 6.88419 169.019 6.51487 169.069 6.15246C169.151 5.79587 169.322 5.46572 169.565 5.19249C169.809 4.91927 170.117 4.71179 170.462 4.58921C171.269 4.28456 172.143 4.20623 172.991 4.3627C173.839 4.51917 174.628 4.90449 175.273 5.47698C175.551 5.71448 175.765 6.01832 175.895 6.36043C176.025 6.70254 176.066 7.07186 176.016 7.43426C175.934 7.79086 175.763 8.12101 175.52 8.39423C175.276 8.66746 174.968 8.87494 174.623 8.99752C174.112 9.20912 173.563 9.31501 173.01 9.30881ZM172.073 4.95544C171.613 4.94958 171.156 5.0369 170.73 5.21214C170.489 5.29279 170.272 5.43228 170.098 5.61796C169.925 5.80364 169.8 6.02966 169.736 6.27556C169.708 6.52814 169.744 6.78368 169.84 7.01904C169.936 7.2544 170.089 7.46215 170.285 7.62348C170.833 8.10222 171.501 8.42457 172.217 8.55672C172.933 8.68887 173.671 8.62596 174.354 8.37459C174.595 8.29393 174.812 8.15445 174.986 7.96877C175.159 7.78308 175.284 7.55706 175.348 7.31117C175.376 7.05858 175.34 6.80298 175.244 6.56759C175.149 6.3322 174.996 6.12446 174.799 5.96325C174.259 5.47079 173.588 5.14638 172.866 5.0297C172.605 4.98106 172.34 4.95621 172.074 4.95544H172.073Z" fill="#555555"/>
<path d="M172.151 4.61719L171.469 8.70877L172.475 8.938L173.319 4.78436L172.151 4.61719Z" fill="#555555"/>
<path d="M176.239 9.01956C176.421 9.01956 176.568 8.87199 176.568 8.68996C176.568 8.50792 176.421 8.36035 176.239 8.36035C176.057 8.36035 175.909 8.50792 175.909 8.68996C175.909 8.87199 176.057 9.01956 176.239 9.01956Z" fill="#555555"/>
<path d="M176.813 7.33206C176.995 7.33206 177.143 7.18449 177.143 7.00246C177.143 6.82042 176.995 6.67285 176.813 6.67285C176.631 6.67285 176.483 6.82042 176.483 7.00246C176.483 7.18449 176.631 7.33206 176.813 7.33206Z" fill="#555555"/>
</svg>
