<svg width="251" height="133" viewBox="0 0 251 133" fill="none" xmlns="http://www.w3.org/2000/svg">
<g style="mix-blend-mode:luminosity">
<path d="M125.5 132.267C194.812 132.267 251 127.253 251 121.069C251 114.884 194.812 109.87 125.5 109.87C56.1881 109.87 0 114.884 0 121.069C0 127.253 56.1881 132.267 125.5 132.267Z" fill="#493B3B"/>
<path d="M88.2338 14.4534H55.7969V9.0472C55.7969 5.64905 58.5772 2.86874 61.9753 2.86874H82.0553C85.4535 2.86874 88.2338 5.64905 88.2338 9.0472V14.4534Z" fill="#C1A7A7"/>
<path d="M88.2338 14.4534H55.7969V9.0472C55.7969 5.64905 58.5772 2.86874 61.9753 2.86874H82.0553C85.4535 2.86874 88.2338 5.64905 88.2338 9.0472V14.4534Z" stroke="#493B3B" stroke-width="0.817655" stroke-miterlimit="10" stroke-linecap="round" stroke-linejoin="round"/>
<path d="M86.4238 4.14412V14.4544" stroke="#493B3B" stroke-width="0.545103" stroke-miterlimit="10" stroke-linecap="round" stroke-linejoin="round"/>
<path d="M82.9492 4.14412V14.4544" stroke="#493B3B" stroke-width="0.545103" stroke-miterlimit="10" stroke-linecap="round" stroke-linejoin="round"/>
<path d="M79.4727 4.14412V14.4544" stroke="#493B3B" stroke-width="0.545103" stroke-miterlimit="10" stroke-linecap="round" stroke-linejoin="round"/>
<path d="M75.9961 4.14412V14.4544" stroke="#493B3B" stroke-width="0.545103" stroke-miterlimit="10" stroke-linecap="round" stroke-linejoin="round"/>
<path d="M72.5195 4.14412V14.4544" stroke="#493B3B" stroke-width="0.545103" stroke-miterlimit="10" stroke-linecap="round" stroke-linejoin="round"/>
<path d="M69.0469 4.14412V14.4544" stroke="#493B3B" stroke-width="0.545103" stroke-miterlimit="10" stroke-linecap="round" stroke-linejoin="round"/>
<path d="M65.5684 4.14412V14.4544" stroke="#493B3B" stroke-width="0.545103" stroke-miterlimit="10" stroke-linecap="round" stroke-linejoin="round"/>
<path d="M62.0957 4.14412V14.4544" stroke="#493B3B" stroke-width="0.545103" stroke-miterlimit="10" stroke-linecap="round" stroke-linejoin="round"/>
<path d="M58.6191 4.14433V14.4546" stroke="#493B3B" stroke-width="0.545103" stroke-miterlimit="10" stroke-linecap="round" stroke-linejoin="round"/>
<path d="M220.07 0.590736H95.7286C92.2918 0.590736 89.1254 2.25119 87.0401 4.95427C82.6766 10.7466 75.7258 14.4923 67.9255 14.4923H22.3594V111.803C22.3594 116.939 26.4912 121.071 31.6271 121.071H220.07C225.206 121.071 229.338 116.939 229.338 111.803V9.85843C229.338 4.72258 225.167 0.590736 220.07 0.590736Z" fill="#E2A86D"/>
<path d="M33.5578 31.3682H22.3594V110.182H33.5578V31.3682Z" fill="#D6975F"/>
<path d="M229.339 31.3682H218.141V110.182H229.339V31.3682Z" fill="#D6975F"/>
<mask id="mask0_1046_52164" style="mask-type:alpha" maskUnits="userSpaceOnUse" x="22" y="31" width="208" height="80">
<path d="M229.348 31.2955H22.3691V110.225H229.348V31.2955Z" fill="#E2A86D"/>
</mask>
<g mask="url(#mask0_1046_52164)">
<path d="M40.6647 23.4224C62.2893 36.2041 72.2521 61.111 65.5716 82.5039C57.6941 107.797 30.6633 115.134 29.0801 115.52" stroke="#CC894C" stroke-width="0.817655" stroke-miterlimit="10" stroke-linecap="round" stroke-linejoin="round"/>
<path d="M48.3513 88.2955C39.0836 98.3355 21.977 102.352 6.49219 94.667" stroke="#CC894C" stroke-width="0.817655" stroke-miterlimit="10" stroke-linecap="round" stroke-linejoin="round"/>
<path d="M11.7051 34.4258C35.1446 36.3952 52.6374 50.1423 55.1474 66.2835C55.2632 67.1331 56.3445 74.6244 53.0622 82.3861" stroke="#CC894C" stroke-width="0.817655" stroke-miterlimit="10" stroke-linecap="round" stroke-linejoin="round"/>
<path d="M7.65234 57.5963C16.92 51.0317 25.5699 50.3366 33.6019 54.2367C39.2397 57.0171 46.2291 63.8906 45.4182 69.1809C44.028 78.4486 28.1957 89.3381 14.5645 88.8747" stroke="#CC894C" stroke-width="0.817655" stroke-miterlimit="10" stroke-linecap="round" stroke-linejoin="round"/>
<path d="M29.0855 58.4058C30.1667 59.2554 36.0362 62.5763 34.7233 69.8746C34.2985 72.2688 28.2359 80.7255 18.0801 79.0265" stroke="#CC894C" stroke-width="0.817655" stroke-miterlimit="10" stroke-linecap="round" stroke-linejoin="round"/>
<path d="M12.2852 67.4408C17.5755 63.5406 25.5688 59.8336 29.0828 65.7417" stroke="#CC894C" stroke-width="0.817655" stroke-miterlimit="10" stroke-linecap="round" stroke-linejoin="round"/>
<path d="M12.2852 109.727C16.0695 110.036 38.1188 111.426 52.2521 95.8253C55.9205 91.7707 58.2761 87.4458 59.7821 83.6614" stroke="#CC894C" stroke-width="0.817655" stroke-miterlimit="10" stroke-linecap="round" stroke-linejoin="round"/>
<path d="M62.6777 23.4211C65.4194 29.8699 72.6019 43.9645 87.5847 50.6449C110.136 60.7236 141.762 50.1816 161.726 22.2626" stroke="#CC894C" stroke-width="0.817655" stroke-miterlimit="10" stroke-linecap="round" stroke-linejoin="round"/>
<path d="M81.2129 23.9992C81.4832 26.0844 82.603 32.5718 88.1637 37.9007C95.655 45.0832 105.193 44.3881 106.699 44.2723" stroke="#CC894C" stroke-width="0.817655" stroke-miterlimit="10" stroke-linecap="round" stroke-linejoin="round"/>
<path d="M85.7693 95.4366C80.3631 91.9226 72.2539 86.2075 72.2539 69.9118C72.2539 64.5443 73.9144 61.5323 75.1887 60.8372C79.6294 58.4431 93.8399 74.3912 111.912 79.0251C125.968 82.6549 149.33 73.9278 182.424 45.9317" stroke="#CC894C" stroke-width="0.817655" stroke-miterlimit="10" stroke-linecap="round" stroke-linejoin="round"/>
<path d="M193.544 26.3162C181.418 27.8608 157.284 32.9194 141.992 52.3816C141.143 53.4242 131.952 65.2405 134.462 68.0208C136.123 69.8358 148.711 50.1805 172.537 41.4148C178.291 39.291 183.311 38.3256 186.786 37.8236" stroke="#CC894C" stroke-width="0.817655" stroke-miterlimit="10" stroke-linecap="round" stroke-linejoin="round"/>
<path d="M48.7754 126.524C51.5943 112.931 60.1283 103.74 69.0485 103.354C69.3574 103.354 76.7715 103.123 80.0539 107.988C83.9926 113.858 80.7103 125.365 69.6277 134.633" stroke="#CC894C" stroke-width="0.817655" stroke-miterlimit="10" stroke-linecap="round" stroke-linejoin="round"/>
<path d="M67.6211 96.7878C78.1631 95.7066 87.5852 101.036 92.4508 109.492C98.6679 120.189 97.6253 133.125 86.3882 141.582" stroke="#CC894C" stroke-width="0.817655" stroke-miterlimit="10" stroke-linecap="round" stroke-linejoin="round"/>
<path d="M192.736 48.7133C191.076 50.6055 182.696 56.9384 179.414 58.792C162.346 68.4458 159.991 63.2713 143.116 82.386C134.002 92.6963 126.086 117.874 112.455 135.212" stroke="#CC894C" stroke-width="0.817655" stroke-miterlimit="10" stroke-linecap="round" stroke-linejoin="round"/>
<path d="M211.077 11.3726C210.768 21.4898 205.401 32.5724 197.484 42.9214" stroke="#CC894C" stroke-width="0.817655" stroke-miterlimit="10" stroke-linecap="round" stroke-linejoin="round"/>
<path d="M239.885 35.0063C236.294 35.5083 215.21 38.9064 203.393 57.5963C201.887 59.9518 196.867 68.1383 196.443 79.0278C195.709 97.8335 209.147 116.485 230.038 127.104" stroke="#CC894C" stroke-width="0.817655" stroke-miterlimit="10" stroke-linecap="round" stroke-linejoin="round"/>
<path d="M212.006 91.4223C215.404 103.432 227.645 113.201 242.782 116.715" stroke="#CC894C" stroke-width="0.817655" stroke-miterlimit="10" stroke-linecap="round" stroke-linejoin="round"/>
<path d="M240.464 57.0156C228.03 59.3325 215.171 67.2487 212.121 77.5976C211.464 79.7987 211.117 81.9998 211.078 84.1622" stroke="#CC894C" stroke-width="0.817655" stroke-miterlimit="10" stroke-linecap="round" stroke-linejoin="round"/>
<path d="M152.422 135.212C157.249 107.448 172.734 93.7393 181.074 88.2559C189.647 82.6567 198.915 84.9736 190.612 100.458C184.743 111.425 190.96 127.103 177.869 136.95" stroke="#CC894C" stroke-width="0.817655" stroke-miterlimit="10" stroke-linecap="round" stroke-linejoin="round"/>
<path d="M244.518 69.18C230.153 71.3039 221.812 79.0269 222.507 84.24C223.086 88.5263 229.921 92.1562 238.146 93.5077" stroke="#CC894C" stroke-width="0.817655" stroke-miterlimit="10" stroke-linecap="round" stroke-linejoin="round"/>
<path d="M184.277 77.8689C185.976 71.1498 190.417 57.5958 202.233 44.8527C215.363 30.6808 230.307 25.3519 236.987 23.4212" stroke="#CC894C" stroke-width="0.817655" stroke-miterlimit="10" stroke-linecap="round" stroke-linejoin="round"/>
<path d="M173.66 111.694C172.926 104.743 175.861 99.414 179.568 98.5645C180.225 98.41 184.279 98.0625 184.279 103.353" stroke="#CC894C" stroke-width="0.817655" stroke-miterlimit="10" stroke-linecap="round" stroke-linejoin="round"/>
</g>
<path d="M83.0612 103.772L102.485 95.1992L94.9934 78.247L75.5698 86.8196C70.8974 88.9049 68.7735 94.3496 70.8201 99.0221C72.9054 103.733 78.3888 105.818 83.0612 103.772Z" fill="#E5D6D6"/>
<path d="M83.0612 103.772L102.485 95.1992L94.9934 78.247L75.5698 86.8196C70.8974 88.9049 68.7735 94.3496 70.8201 99.0221C72.9054 103.733 78.3888 105.818 83.0612 103.772Z" stroke="#493B3B" stroke-width="0.817655" stroke-miterlimit="10" stroke-linecap="round" stroke-linejoin="round"/>
<path d="M79.3145 100.839C82.3856 100.839 84.8751 98.3492 84.8751 95.2781C84.8751 92.2071 82.3856 89.7175 79.3145 89.7175C76.2434 89.7175 73.7539 92.2071 73.7539 95.2781C73.7539 98.3492 76.2434 100.839 79.3145 100.839Z" fill="#EFE6E6"/>
<path d="M79.3145 100.839C82.3856 100.839 84.8751 98.3492 84.8751 95.2781C84.8751 92.2071 82.3856 89.7175 79.3145 89.7175C76.2434 89.7175 73.7539 92.2071 73.7539 95.2781C73.7539 98.3492 76.2434 100.839 79.3145 100.839Z" stroke="#493B3B" stroke-width="0.545103" stroke-miterlimit="10" stroke-linecap="round" stroke-linejoin="round"/>
<path d="M22.3594 110.181V111.765C22.3594 116.9 26.4912 121.032 31.6271 121.032H220.07C225.206 121.032 229.338 116.9 229.338 111.765V110.181H22.3594Z" fill="#E5D6D6"/>
<path opacity="0.2" d="M125.847 32.4852C101.635 32.4852 82.0186 52.1791 82.0186 76.4295C82.0186 79.5188 82.3275 82.5308 82.9454 85.4656L75.5698 88.7093C70.8974 90.7945 68.7735 96.2392 70.8201 100.912C72.9054 105.584 78.3501 107.708 83.0226 105.661L90.4368 102.379C98.3915 113.307 111.289 120.374 125.808 120.374C150.02 120.374 169.637 100.68 169.637 76.4295C169.676 52.1791 150.059 32.4852 125.847 32.4852Z" fill="#2D2D2D" stroke="#2D2D2D" stroke-width="1.09021" stroke-miterlimit="10" stroke-linecap="round" stroke-linejoin="round"/>
<path d="M220.071 121.07H218.141V110.219H229.339V111.802C229.339 116.9 225.169 121.07 220.071 121.07Z" fill="#DBC8C8"/>
<path d="M31.6271 121.07H33.5578V110.219H22.3594V111.802C22.3594 116.9 26.4912 121.07 31.6271 121.07Z" fill="#DBC8C8"/>
<path d="M220.07 0.474884H95.7286C92.2918 0.474884 89.0868 2.13534 87.0401 4.87704C82.6766 10.708 75.7258 14.4537 67.9255 14.4537H22.3594V31.3672H229.338V9.78119C229.338 4.64535 225.167 0.474884 220.07 0.474884Z" fill="#E5D6D6"/>
<path d="M33.5578 14.8405H22.3594V31.3678H33.5578V14.8405Z" fill="#DBC8C8"/>
<path d="M164.155 25.267H34.7938C34.0988 25.267 33.5195 24.6877 33.5195 23.9927C33.5195 23.2976 34.0988 22.7184 34.7938 22.7184H164.155C164.85 22.7184 165.43 23.2976 165.43 23.9927C165.43 24.6877 164.85 25.267 164.155 25.267Z" fill="#C1A7A7"/>
<path d="M220.032 0.474884H218.102V31.3672H229.3V9.74258C229.3 4.64535 225.168 0.474884 220.032 0.474884Z" fill="#DBC8C8"/>
<path d="M125.848 113.85C150.054 113.85 169.676 94.1751 169.676 69.9053C169.676 45.6355 150.054 25.961 125.848 25.961C101.642 25.961 82.0195 45.6355 82.0195 69.9053C82.0195 94.1751 101.642 113.85 125.848 113.85Z" fill="#E5D6D6"/>
<path d="M125.847 105.046C145.254 105.046 160.987 89.313 160.987 69.9057C160.987 50.4984 145.254 34.7657 125.847 34.7657C106.44 34.7657 90.707 50.4984 90.707 69.9057C90.707 89.313 106.44 105.046 125.847 105.046Z" fill="#845B5B"/>
<path d="M125.847 42.4888C143.919 42.4888 158.863 56.1972 160.755 73.7672C160.91 72.4929 160.987 71.2186 160.987 69.9057C160.987 50.5208 145.232 34.7657 125.847 34.7657C106.462 34.7657 90.707 50.5208 90.707 69.9057C90.707 71.2186 90.7843 72.4929 90.9387 73.7672C92.8309 56.1972 107.775 42.4888 125.847 42.4888Z" fill="#704848"/>
<path d="M220.07 0.590736H95.7286C92.2918 0.590736 89.1254 2.25119 87.0401 4.95427C82.6766 10.7466 75.7258 14.4923 67.9255 14.4923H22.3594V111.803C22.3594 116.939 26.4912 121.071 31.6271 121.071H220.07C225.206 121.071 229.338 116.939 229.338 111.803V9.85843C229.338 4.72258 225.167 0.590736 220.07 0.590736Z" stroke="#493B3B" stroke-width="0.817655" stroke-miterlimit="10" stroke-linecap="round" stroke-linejoin="round"/>
<path d="M125.848 109.486C147.708 109.486 165.429 91.7649 165.429 69.9051C165.429 48.0453 147.708 30.3243 125.848 30.3243C103.989 30.3243 86.2676 48.0453 86.2676 69.9051C86.2676 91.7649 103.989 109.486 125.848 109.486Z" stroke="#493B3B" stroke-width="0.408828" stroke-miterlimit="10" stroke-linecap="round" stroke-linejoin="round"/>
<path d="M125.847 105.046C145.254 105.046 160.987 89.313 160.987 69.9057C160.987 50.4984 145.254 34.7657 125.847 34.7657C106.44 34.7657 90.707 50.4984 90.707 69.9057C90.707 89.313 106.44 105.046 125.847 105.046Z" stroke="#493B3B" stroke-width="1.09021" stroke-miterlimit="10" stroke-linecap="round" stroke-linejoin="round"/>
<path d="M125.848 93.8485C139.07 93.8485 149.789 83.1297 149.789 69.907C149.789 56.6847 139.07 45.9655 125.848 45.9655C112.625 45.9655 101.906 56.6847 101.906 69.907C101.906 83.1297 112.625 93.8485 125.848 93.8485Z" fill="#B57F7F"/>
<path opacity="0.34" d="M142.334 69.904C153.918 69.904 160.29 83.4194 152.876 92.3009C146.427 100.063 136.696 105.044 125.845 105.044C114.994 105.044 105.263 100.101 98.8141 92.3009C91.3999 83.3808 97.8101 69.904 109.356 69.904H142.334Z" fill="white"/>
<path d="M125.848 53.6885C137.741 53.6885 147.627 62.4156 149.48 73.7685C149.673 72.4942 149.789 71.2199 149.789 69.907C149.789 56.7005 139.054 45.9655 125.848 45.9655C112.641 45.9655 101.906 56.7005 101.906 69.907C101.906 71.2199 102.022 72.4942 102.215 73.7685C104.069 62.377 113.954 53.6885 125.848 53.6885Z" fill="#AD6D6D"/>
<path d="M125.848 93.8485C139.07 93.8485 149.789 83.1297 149.789 69.907C149.789 56.6847 139.07 45.9655 125.848 45.9655C112.625 45.9655 101.906 56.6847 101.906 69.907C101.906 83.1297 112.625 93.8485 125.848 93.8485Z" stroke="#493B3B" stroke-width="0.817655" stroke-miterlimit="10" stroke-linecap="round" stroke-linejoin="round"/>
<path d="M125.848 84.1919C133.739 84.1919 140.136 77.7952 140.136 69.9042C140.136 62.0135 133.739 55.6165 125.848 55.6165C117.957 55.6165 111.561 62.0135 111.561 69.9042C111.561 77.7952 117.957 84.1919 125.848 84.1919Z" fill="#4C3535"/>
<path d="M125.848 84.1919C133.739 84.1919 140.136 77.7952 140.136 69.9042C140.136 62.0135 133.739 55.6165 125.848 55.6165C117.957 55.6165 111.561 62.0135 111.561 69.9042C111.561 77.7952 117.957 84.1919 125.848 84.1919Z" stroke="#493B3B" stroke-width="0.408828" stroke-miterlimit="10" stroke-linecap="round" stroke-linejoin="round"/>
<path d="M125.848 78.9803C130.86 78.9803 134.923 74.9175 134.923 69.9056C134.923 64.8941 130.86 60.831 125.848 60.831C120.836 60.831 116.773 64.8941 116.773 69.9056C116.773 74.9175 120.836 78.9803 125.848 78.9803Z" fill="#3F2E2E"/>
<path d="M51.4751 14.4532H31.2793V10.5917C31.2793 9.31735 32.3219 8.27473 33.5962 8.27473H49.1582C50.4325 8.27473 51.4751 9.31735 51.4751 10.5917V14.4532Z" fill="#6A4949"/>
<path d="M51.4751 14.4532H31.2793V10.5917C31.2793 9.31735 32.3219 8.27473 33.5962 8.27473H49.1582C50.4325 8.27473 51.4751 9.31735 51.4751 10.5917V14.4532Z" stroke="#493B3B" stroke-width="0.817655" stroke-miterlimit="10" stroke-linecap="round" stroke-linejoin="round"/>
<path d="M48.3469 3.6797H34.4453V8.27493H48.3469V3.6797Z" stroke="#493B3B" stroke-width="0.817655" stroke-miterlimit="10" stroke-linecap="round" stroke-linejoin="round"/>
<path d="M48.3469 3.6797H34.4453V8.27493H48.3469V3.6797Z" fill="#493B3B"/>
<path d="M125.848 113.85C150.054 113.85 169.676 94.1751 169.676 69.9053C169.676 45.6355 150.054 25.961 125.848 25.961C101.642 25.961 82.0195 45.6355 82.0195 69.9053C82.0195 94.1751 101.642 113.85 125.848 113.85Z" stroke="#493B3B" stroke-width="1.09021" stroke-miterlimit="10" stroke-linecap="round" stroke-linejoin="round"/>
<path opacity="0.38" d="M125.848 60.831C120.828 60.831 116.773 64.8856 116.773 69.9056C116.773 69.9443 116.773 69.9443 116.773 69.9829C117.971 68.9789 119.747 68.4383 122.102 68.6313C124.458 68.8244 124.883 69.5581 127.509 70.3304C129.825 70.9869 132.799 70.7552 134.923 69.7126C134.807 64.7698 130.791 60.831 125.848 60.831Z" fill="white"/>
<path d="M125.85 99.2536C142.058 99.2536 155.197 86.1144 155.197 69.9059C155.197 53.6979 142.058 40.5583 125.85 40.5583C109.641 40.5583 96.502 53.6979 96.502 69.9059C96.502 86.1144 109.641 99.2536 125.85 99.2536Z" stroke="#493B3B" stroke-width="0.408828" stroke-miterlimit="10" stroke-linecap="round" stroke-linejoin="round"/>
<path d="M125.847 105.046C145.254 105.046 160.987 89.313 160.987 69.9057C160.987 50.4984 145.254 34.7657 125.847 34.7657C106.44 34.7657 90.707 50.4984 90.707 69.9057C90.707 89.313 106.44 105.046 125.847 105.046Z" stroke="#493B3B" stroke-width="1.09021" stroke-miterlimit="10" stroke-linecap="round" stroke-linejoin="round"/>
<path d="M208.293 28.2798H175.199C172.689 28.2798 170.643 26.2332 170.643 23.7232V10.5168C170.643 8.00675 172.689 5.96014 175.199 5.96014H208.293C210.803 5.96014 212.849 8.00675 212.849 10.5168V23.7232C212.849 26.2332 210.803 28.2798 208.293 28.2798Z" fill="#443636"/>
<path d="M208.293 28.2798H175.199C172.689 28.2798 170.643 26.2332 170.643 23.7232V10.5168C170.643 8.00675 172.689 5.96014 175.199 5.96014H208.293C210.803 5.96014 212.849 8.00675 212.849 10.5168V23.7232C212.849 26.2332 210.803 28.2798 208.293 28.2798Z" stroke="#493B3B" stroke-width="0.545103" stroke-miterlimit="10" stroke-linecap="round" stroke-linejoin="round"/>
<path d="M205.393 25.9606H178.092C175.968 25.9606 174.23 24.2229 174.23 22.099V12.1363C174.23 10.0124 175.968 8.27473 178.092 8.27473H205.393C207.517 8.27473 209.255 10.0124 209.255 12.1363V22.099C209.255 24.2615 207.517 25.9606 205.393 25.9606Z" fill="#845B5B"/>
<path opacity="0.38" d="M198.714 25.9606L209.218 11.5957C208.948 9.74212 207.364 8.27473 205.395 8.27473H204.159L191.262 25.9606H198.714Z" fill="white"/>
<path opacity="0.38" d="M188.442 25.9606L201.34 8.27473H199.062L186.164 25.9606H188.442Z" fill="white"/>
</g>
</svg>
