<svg width="32" height="32" viewBox="0 0 32 32" fill="none" xmlns="http://www.w3.org/2000/svg">
<path fill-rule="evenodd" clip-rule="evenodd" d="M4.20191 4.20197C4.82674 3.57713 5.83981 3.57713 6.46465 4.20197L15.9999 13.7373L25.5352 4.20197C26.1601 3.57713 27.1731 3.57713 27.798 4.20197C28.4228 4.82681 28.4228 5.83987 27.798 6.46471L18.2627 16L27.798 25.5353C28.4228 26.1601 28.4228 27.1732 27.798 27.798C27.1731 28.4229 26.1601 28.4229 25.5352 27.798L15.9999 18.2627L6.46465 27.798C5.83981 28.4229 4.82674 28.4229 4.20191 27.798C3.57707 27.1732 3.57707 26.1601 4.20191 25.5353L13.7372 16L4.20191 6.46471C3.57707 5.83987 3.57707 4.82681 4.20191 4.20197Z" fill="black"/>
</svg>
