<svg width="32" height="32" viewBox="0 0 32 32" fill="none" xmlns="http://www.w3.org/2000/svg">
<path d="M14.6045 14.8356C13.3738 14.8356 12.1708 14.4706 11.1476 13.7869C10.1244 13.1032 9.32684 12.1314 8.8559 10.9945C8.38495 9.85752 8.26173 8.60644 8.50182 7.39944C8.7419 6.19245 9.33451 5.08376 10.2047 4.21356C11.0749 3.34337 12.1836 2.75076 13.3906 2.51067C14.5976 2.27059 15.8487 2.39381 16.9856 2.86475C18.1226 3.3357 19.0944 4.13322 19.7781 5.15646C20.4618 6.1797 20.8267 7.3827 20.8267 8.61334C20.8267 10.2636 20.1711 11.8462 19.0043 13.0131C17.8374 14.18 16.2547 14.8356 14.6045 14.8356ZM14.6045 4.24001C13.7255 4.24001 12.8662 4.50067 12.1353 4.98903C11.4044 5.47739 10.8347 6.17152 10.4983 6.98363C10.162 7.79575 10.0739 8.68938 10.2454 9.55152C10.4169 10.4137 10.8402 11.2056 11.4618 11.8271C12.0834 12.4487 12.8753 12.872 13.7374 13.0435C14.5996 13.215 15.4932 13.127 16.3053 12.7906C17.1174 12.4542 17.8115 11.8845 18.2999 11.1537C18.7883 10.4228 19.0489 9.56348 19.0489 8.68445C19.0489 8.1008 18.934 7.52286 18.7106 6.98363C18.4873 6.44441 18.1599 5.95446 17.7472 5.54175C17.3345 5.12905 16.8445 4.80167 16.3053 4.57832C15.7661 4.35496 15.1881 4.24001 14.6045 4.24001ZM19.5556 15.9111C14.7453 14.8287 9.71295 15.35 5.2267 17.3956C4.60972 17.6903 4.08916 18.1542 3.72564 18.7333C3.36211 19.3124 3.17059 19.9829 3.17337 20.6667V25.9556C3.17337 26.0723 3.19636 26.1879 3.24103 26.2957C3.2857 26.4036 3.35118 26.5016 3.43372 26.5841C3.51626 26.6666 3.61425 26.7321 3.7221 26.7768C3.82994 26.8215 3.94553 26.8444 4.06226 26.8444C4.17899 26.8444 4.29458 26.8215 4.40242 26.7768C4.51027 26.7321 4.60826 26.6666 4.6908 26.5841C4.77334 26.5016 4.83881 26.4036 4.88348 26.2957C4.92816 26.1879 4.95115 26.0723 4.95115 25.9556V20.6667C4.94341 20.3206 5.03685 19.9799 5.22002 19.6862C5.40318 19.3925 5.6681 19.1586 5.98226 19.0133C8.68472 17.7655 11.6279 17.1253 14.6045 17.1378C16.2723 17.1357 17.9344 17.3326 19.5556 17.7245V15.9111ZM19.68 24.3645H25.1378V25.6089H19.68V24.3645Z" fill="black"/>
<path d="M29.4844 19.0844H24.8888V20.8622H28.5955V28.3022H15.9999V20.8622H21.5999V21.2356C21.5999 21.4713 21.6936 21.6974 21.8603 21.8641C22.027 22.0308 22.2531 22.1244 22.4888 22.1244C22.7246 22.1244 22.9507 22.0308 23.1174 21.8641C23.2841 21.6974 23.3777 21.4713 23.3777 21.2356V17.7778C23.3777 17.542 23.2841 17.3159 23.1174 17.1492C22.9507 16.9825 22.7246 16.8889 22.4888 16.8889C22.2531 16.8889 22.027 16.9825 21.8603 17.1492C21.6936 17.3159 21.5999 17.542 21.5999 17.7778V19.0844H15.1111C14.8753 19.0844 14.6492 19.1781 14.4825 19.3448C14.3158 19.5115 14.2222 19.7376 14.2222 19.9733V29.1911C14.2222 29.4269 14.3158 29.6529 14.4825 29.8196C14.6492 29.9863 14.8753 30.08 15.1111 30.08H29.4844C29.7201 30.08 29.9462 29.9863 30.1129 29.8196C30.2796 29.6529 30.3733 29.4269 30.3733 29.1911V19.9733C30.3733 19.7376 30.2796 19.5115 30.1129 19.3448C29.9462 19.1781 29.7201 19.0844 29.4844 19.0844Z" fill="black"/>
</svg>
