<svg width="32" height="32" viewBox="0 0 32 32" fill="none" xmlns="http://www.w3.org/2000/svg">
<path d="M27 11C27.0012 10.867 26.9752 10.7353 26.9236 10.6127C26.872 10.4902 26.7959 10.3795 26.7 10.2875L19.7125 3.28749C19.522 3.10176 19.266 2.99849 19 2.99999H7C6.46957 2.99999 5.96086 3.2107 5.58579 3.58577C5.21071 3.96084 5 4.46955 5 4.99999V16C5 16.2652 5.10536 16.5196 5.29289 16.7071C5.48043 16.8946 5.73478 17 6 17C6.26522 17 6.51957 16.8946 6.70711 16.7071C6.89464 16.5196 7 16.2652 7 16V4.99999H18V11C18 11.2652 18.1054 11.5196 18.2929 11.7071C18.4804 11.8946 18.7348 12 19 12H25V27H22C21.7348 27 21.4804 27.1053 21.2929 27.2929C21.1054 27.4804 21 27.7348 21 28C21 28.2652 21.1054 28.5196 21.2929 28.7071C21.4804 28.8946 21.7348 29 22 29H25C25.5304 29 26.0391 28.7893 26.4142 28.4142C26.7893 28.0391 27 27.5304 27 27V11ZM20 6.41249L23.5875 9.99999H20V6.41249ZM18.525 19.65C18.3803 19.559 18.2147 19.5067 18.044 19.4979C17.8733 19.4892 17.7032 19.5243 17.55 19.6L15 20.8875C14.9683 20.3778 14.744 19.8993 14.3727 19.5488C14.0013 19.1984 13.5106 19.0022 13 19H6C5.46957 19 4.96086 19.2107 4.58579 19.5858C4.21071 19.9608 4 20.4696 4 21V26C4 26.5304 4.21071 27.0391 4.58579 27.4142C4.96086 27.7893 5.46957 28 6 28H13C13.5013 27.9985 13.9837 27.8088 14.3518 27.4685C14.7199 27.1282 14.9468 26.6621 14.9875 26.1625L17.525 27.525C17.6694 27.6081 17.8334 27.6513 18 27.65C18.1815 27.6487 18.359 27.5967 18.5125 27.5C18.6607 27.413 18.7836 27.2888 18.8691 27.1397C18.9546 26.9906 18.9997 26.8218 19 26.65V20.5C19.001 20.3293 18.9578 20.1613 18.8745 20.0124C18.7913 19.8634 18.6709 19.7385 18.525 19.65ZM13 26H6V21H13V26ZM17 24.975L15 23.9V23.1125L17 22.1125V24.975Z" fill="black"/>
</svg>
